<svg version="1.0" width="548.000000pt" height="120.000000pt"
    viewBox="6.422 -12.308 939.757 209.312" preserveAspectRatio="xMidYMid meet"
    xmlns="http://www.w3.org/2000/svg">
    <defs></defs>
    <g transform="matrix(0.1, 0, 0, -0.1, 4.378673, 285.593964)" fill="#121F3B" stroke="none">
        <path
            d="M 839.552 2842.89 C 791.552 2819.89 764.552 2775.89 763.552 2719.89 C 761.552 2630.89 810.552 2584.89 916.552 2573.89 L 977.552 2566.89 L 977.552 2493.89 L 977.552 2419.89 L 873.552 2419.89 C 755.552 2419.89 757.552 2420.89 757.552 2336.89 L 757.552 2285.89 L 708.552 2333.89 C 651.552 2389.89 621.552 2392.89 623.552 2341.89 L 625.552 2309.89 L 483.552 2309.89 C 386.552 2309.89 337.552 2305.89 329.552 2297.89 C 320.552 2288.89 317.552 2225.89 317.552 2077.89 L 317.552 1869.89 L 219.552 1869.89 C 156.552 1869.89 117.552 1865.89 109.552 1857.89 C 101.552 1849.89 97.552 1800.89 97.552 1702.89 C 97.552 1572.89 99.552 1559.89 116.552 1549.89 C 145.552 1534.89 579.552 1535.89 595.552 1551.89 C 602.552 1558.89 607.552 1590.89 607.552 1626.89 L 607.552 1689.89 L 639.552 1689.89 C 663.552 1689.89 710.552 1663.89 824.552 1588.89 L 977.552 1486.89 L 977.552 1403.89 L 977.552 1319.89 L 932.552 1319.89 C 779.552 1319.89 703.552 1163.89 808.552 1063.89 L 838.552 1034.89 L 1003.552 1031.89 C 1155.552 1028.89 1170.552 1029.89 1201.552 1048.89 C 1233.552 1068.89 1267.552 1121.89 1267.552 1150.89 C 1267.552 1157.89 1289.552 1142.89 1315.552 1116.89 C 1341.552 1090.89 1370.552 1069.89 1379.552 1069.89 C 1402.552 1069.89 1417.552 1092.89 1410.552 1117.89 C 1405.552 1138.89 1406.552 1138.89 1553.552 1141.89 L 1702.552 1144.89 L 1705.552 1342.89 L 1707.552 1539.89 L 1805.552 1539.89 C 1858.552 1539.89 1908.552 1543.89 1915.552 1547.89 C 1934.552 1560.89 1935.552 1848.89 1916.552 1860.89 C 1908.552 1865.89 1800.552 1869.89 1675.552 1869.89 C 1420.552 1869.89 1417.552 1868.89 1417.552 1798.89 C 1417.552 1761.89 1416.552 1759.89 1385.552 1759.89 C 1361.552 1759.89 1314.552 1785.89 1200.552 1860.89 L 1047.552 1962.89 L 1047.552 2025.89 L 1047.552 2089.89 L 1145.552 2089.89 C 1198.552 2089.89 1248.552 2093.89 1255.552 2097.89 C 1264.552 2104.89 1267.552 2143.89 1265.552 2260.89 L 1262.552 2414.89 L 1157.552 2419.89 L 1052.552 2424.89 L 1049.552 2497.89 L 1046.552 2569.89 L 1082.552 2569.89 C 1144.552 2569.89 1204.552 2589.89 1234.552 2621.89 C 1259.552 2647.89 1262.552 2658.89 1262.552 2714.89 C 1262.552 2768.89 1258.552 2781.89 1237.552 2804.89 C 1191.552 2854.89 1169.552 2859.89 1015.552 2859.89 C 904.552 2859.89 865.552 2855.89 839.552 2842.89 Z M 1171.552 2768.89 C 1190.552 2753.89 1197.552 2738.89 1197.552 2714.89 C 1197.552 2690.89 1190.552 2675.89 1171.552 2660.89 C 1147.552 2641.89 1131.552 2639.89 1016.552 2639.89 C 946.552 2639.89 881.552 2642.89 872.552 2645.89 C 848.552 2655.89 826.552 2705.89 833.552 2734.89 C 845.552 2781.89 870.552 2789.89 1013.552 2789.89 C 1131.552 2789.89 1147.552 2787.89 1171.552 2768.89 Z M 1197.552 2254.89 L 1197.552 2159.89 L 1015.552 2161.89 L 832.552 2164.89 L 829.552 2257.89 L 826.552 2349.89 L 1012.552 2349.89 L 1197.552 2349.89 L 1197.552 2254.89 Z M 774.552 2102.89 C 785.552 2094.89 825.552 2089.89 884.552 2089.89 L 977.552 2089.89 L 977.552 2024.89 L 977.552 1959.89 L 827.552 1859.89 C 708.552 1780.89 670.552 1759.89 642.552 1759.89 L 607.552 1759.89 L 607.552 1808.89 C 607.552 1868.89 605.552 1869.89 481.552 1869.89 L 387.552 1869.89 L 387.552 2054.89 L 387.552 2239.89 L 507.552 2239.89 C 623.552 2239.89 639.552 2235.89 617.552 2213.89 C 611.552 2207.89 609.552 2195.89 612.552 2186.89 C 625.552 2153.89 648.552 2159.89 700.552 2208.89 L 752.552 2258.89 L 755.552 2186.89 C 757.552 2133.89 762.552 2111.89 774.552 2102.89 Z M 1157.552 1809.89 C 1223.552 1765.89 1277.552 1727.89 1277.552 1724.89 C 1277.552 1718.89 1042.552 1560.89 1023.552 1553.89 C 1007.552 1547.89 758.552 1708.89 757.552 1724.89 C 757.552 1738.89 1010.552 1900.89 1024.552 1894.89 C 1031.552 1892.89 1090.552 1854.89 1157.552 1809.89 Z M 537.552 1704.89 L 537.552 1609.89 L 352.552 1609.89 L 167.552 1609.89 L 167.552 1704.89 L 167.552 1799.89 L 352.552 1799.89 L 537.552 1799.89 L 537.552 1704.89 Z M 1858.552 1795.89 C 1860.552 1793.89 1861.552 1750.89 1859.552 1700.89 L 1856.552 1609.89 L 1674.552 1611.89 L 1492.552 1614.89 L 1489.552 1693.89 C 1487.552 1737.89 1488.552 1778.89 1491.552 1786.89 C 1495.552 1796.89 1535.552 1799.89 1675.552 1799.89 C 1773.552 1799.89 1856.552 1797.89 1858.552 1795.89 Z M 1417.552 1632.89 C 1417.552 1547.89 1420.552 1545.89 1539.552 1539.89 L 1642.552 1534.89 L 1642.552 1374.89 L 1642.552 1214.89 L 1525.552 1211.89 L 1408.552 1208.89 L 1410.552 1235.89 C 1411.552 1250.89 1405.552 1266.89 1395.552 1272.89 C 1380.552 1282.89 1369.552 1276.89 1327.552 1234.89 C 1300.552 1207.89 1276.552 1187.89 1274.552 1190.89 C 1272.552 1192.89 1265.552 1209.89 1257.552 1227.89 C 1236.552 1281.89 1188.552 1310.89 1112.552 1317.89 L 1047.552 1322.89 L 1047.552 1403.89 L 1048.552 1484.89 L 1200.552 1586.89 C 1312.552 1661.89 1361.552 1688.89 1385.552 1688.89 L 1417.552 1689.89 L 1417.552 1632.89 Z M 1172.552 1224.89 C 1203.552 1194.89 1204.552 1153.89 1175.552 1122.89 C 1155.552 1100.89 1147.552 1099.89 1012.552 1099.89 C 882.552 1099.89 869.552 1101.89 852.552 1119.89 C 824.552 1150.89 828.552 1198.89 861.552 1226.89 C 886.552 1248.89 896.552 1249.89 1018.552 1249.89 C 1143.552 1249.89 1149.552 1248.89 1172.552 1224.89 Z"></path>
        <path
            d="M 3318.975 2302.096 C 3308.531 2287.736 3304.614 2198.96 3307.226 1984.855 L 3311.142 1685.892 L 3343.78 1685.892 L 3376.418 1685.892 L 3380.335 1845.165 L 3384.252 2004.439 L 3423.417 2037.076 C 3492.609 2095.824 3645.355 2078.852 3677.993 2008.354 C 3684.52 1996.605 3692.353 1915.663 3696.27 1829.499 C 3702.797 1672.837 3702.797 1672.837 3735.436 1672.837 L 3768.074 1672.837 L 3771.99 1837.332 C 3774.601 1988.772 3773.295 2004.439 3745.879 2044.909 C 3681.91 2140.212 3531.775 2176.766 3432.555 2123.24 L 3384.252 2097.13 L 3380.335 2205.488 C 3377.724 2290.346 3372.501 2312.54 3355.53 2316.457 C 3343.78 2317.763 3328.114 2311.235 3318.975 2302.096 Z"
            style=""></path>
        <path
            d="M 8188.557 2294.263 C 8172.891 2266.847 8167.668 1736.807 8182.029 1700.253 C 8185.946 1688.503 8204.222 1679.364 8221.194 1679.364 C 8251.221 1679.364 8251.221 1680.67 8255.138 1845.165 L 8259.055 2010.966 L 8303.443 2040.993 C 8336.08 2063.186 8366.107 2071.02 8418.327 2071.02 C 8479.687 2071.02 8495.353 2065.797 8527.991 2033.16 C 8569.768 1990.078 8571.073 1987.467 8571.073 1803.389 C 8572.379 1672.837 8572.379 1672.837 8605.016 1672.837 L 8637.655 1672.837 L 8641.571 1836.026 C 8644.183 2022.715 8637.655 2044.909 8556.713 2102.352 C 8482.298 2154.573 8383.079 2163.711 8307.358 2124.546 L 8253.832 2097.13 L 8249.916 2204.183 C 8247.304 2292.957 8242.083 2312.54 8223.805 2316.457 C 8212.056 2319.068 8196.39 2308.624 8188.557 2294.263 Z"
            style=""></path>
        <path
            d="M 2317.643 2279.902 C 2223.646 2260.32 2157.065 2181.988 2123.121 2051.437 C 2082.65 1896.08 2110.066 1764.223 2193.619 1714.613 C 2256.284 1678.058 2363.336 1663.698 2465.167 1679.364 C 2590.496 1698.947 2625.746 1714.613 2625.746 1753.779 C 2625.746 1796.861 2602.246 1802.083 2540.887 1770.751 C 2503.026 1751.167 2463.861 1744.64 2390.752 1744.64 C 2286.311 1744.64 2240.618 1762.917 2197.536 1824.277 C 2149.231 1892.163 2188.397 2086.686 2266.728 2168.933 C 2300.672 2205.488 2318.948 2214.627 2359.419 2214.627 C 2420.779 2214.627 2495.194 2172.85 2495.194 2137.601 C 2495.194 2094.519 2509.554 2071.02 2535.665 2071.02 C 2555.248 2071.02 2560.469 2080.158 2560.469 2121.934 C 2560.469 2227.682 2440.362 2304.707 2317.643 2279.902 Z"
            style=""></path>
        <path
            d="M 2851.6 2247.265 C 2770.658 2210.71 2730.186 2153.267 2730.186 2077.547 C 2730.186 1984.855 2762.825 1958.745 2932.542 1920.885 C 2982.152 1909.135 3036.984 1890.858 3053.955 1880.414 C 3121.842 1836.026 3052.65 1757.695 2935.153 1747.251 C 2868.572 1742.029 2863.35 1744.64 2829.406 1785.111 C 2794.157 1826.888 2791.546 1826.888 2774.574 1803.389 C 2751.075 1770.751 2751.075 1753.779 2779.797 1719.836 C 2811.129 1680.67 2897.293 1662.393 2974.318 1679.364 C 3087.898 1705.475 3161.007 1768.139 3161.007 1839.943 C 3161.007 1922.19 3112.704 1957.44 2956.042 1987.467 C 2792.852 2018.799 2761.519 2057.965 2835.934 2142.823 C 2914.265 2231.599 3040.9 2231.599 3056.567 2142.823 C 3065.705 2091.907 3100.953 2090.602 3106.176 2141.518 C 3114.009 2201.572 3098.343 2239.431 3056.567 2260.32 C 3001.734 2289.041 2929.931 2283.819 2851.6 2247.265 Z"
            style=""></path>
        <path
            d="M 5906.512 2247.265 C 5789.015 2188.516 5711.989 2048.825 5727.655 1923.496 C 5738.099 1847.776 5769.432 1775.973 5808.598 1740.724 C 5872.568 1683.281 6000.509 1663.698 6095.811 1697.641 C 6128.449 1709.391 6153.254 1712.002 6157.171 1704.169 C 6162.393 1697.641 6176.754 1692.419 6191.115 1692.419 C 6218.53 1692.419 6218.53 1696.336 6215.919 1820.36 C 6214.614 1866.053 6221.142 1910.441 6228.974 1920.885 C 6236.807 1931.329 6240.724 1950.912 6235.502 1965.272 C 6228.974 1987.467 6215.919 1990.078 6129.755 1990.078 C 6020.092 1988.772 5977.01 1970.495 6005.731 1935.245 C 6017.481 1920.885 6044.896 1914.358 6086.673 1914.358 L 6150.644 1914.358 L 6150.644 1863.442 C 6150.644 1791.638 6118.006 1756.39 6042.285 1748.556 C 5807.292 1721.14 5713.295 1979.633 5896.067 2148.045 C 5948.288 2196.349 5961.343 2201.572 6018.786 2201.572 C 6073.618 2201.572 6091.895 2195.044 6128.449 2162.405 C 6183.281 2114.102 6202.864 2112.796 6202.864 2155.878 C 6202.864 2198.96 6153.254 2244.654 6087.979 2264.236 C 6013.564 2286.43 5980.926 2283.819 5906.512 2247.265 Z"
            style=""></path>
        <path
            d="M 4125.786 2144.129 C 3997.845 2111.491 3912.986 2004.439 3911.681 1875.192 C 3911.681 1785.111 3948.235 1732.891 4038.316 1693.725 C 4120.563 1657.17 4163.645 1659.782 4251.115 1705.475 L 4325.53 1744.64 L 4351.64 1712.002 C 4369.917 1687.197 4389.5 1679.364 4426.054 1679.364 C 4479.581 1679.364 4505.691 1697.641 4505.691 1735.501 C 4505.691 1756.39 4499.163 1759.001 4453.471 1751.167 C 4392.111 1740.724 4396.028 1730.28 4396.028 1903.914 C 4394.722 2025.326 4393.417 2031.854 4355.556 2071.02 C 4285.058 2145.434 4217.171 2166.322 4125.786 2144.129 Z M 4255.031 2065.797 C 4274.614 2055.353 4302.03 2035.77 4315.085 2020.104 C 4338.585 1993.994 4338.585 1987.467 4322.919 1916.969 C 4302.03 1830.804 4286.364 1802.083 4235.449 1769.445 C 4162.34 1719.836 4029.177 1752.473 3995.234 1828.193 C 3963.901 1897.386 4017.427 2016.188 4100.98 2059.27 C 4154.507 2089.297 4206.727 2090.602 4255.031 2065.797 Z"
            style=""></path>
        <path
            d="M 4762.878 2142.823 C 4735.462 2133.684 4709.352 2121.934 4705.435 2118.019 C 4701.518 2114.102 4689.769 2120.629 4680.631 2133.684 C 4667.576 2150.656 4658.436 2153.267 4640.159 2141.518 C 4623.188 2131.074 4614.049 2103.658 4608.827 2043.604 C 4595.772 1918.274 4595.772 1714.613 4608.827 1695.03 C 4614.049 1684.586 4633.632 1679.364 4650.604 1681.975 C 4681.936 1685.892 4681.936 1687.197 4681.936 1836.026 C 4681.936 2000.522 4694.991 2038.381 4761.572 2068.408 C 4802.043 2087.992 4919.54 2089.297 4929.984 2071.02 C 4933.901 2064.492 4952.178 2057.965 4970.455 2057.965 C 4999.176 2057.965 5003.093 2063.186 4999.176 2093.213 C 4996.565 2115.407 4983.51 2134.99 4962.622 2145.434 C 4919.54 2166.322 4825.542 2166.322 4762.878 2142.823 Z"
            style=""></path>
        <path
            d="M 6554.048 2150.656 C 6535.771 2144.129 6508.355 2133.684 6493.994 2125.851 C 6471.801 2114.102 6465.273 2114.102 6458.746 2129.768 C 6448.302 2157.184 6415.663 2154.573 6398.692 2124.546 C 6383.025 2093.213 6364.749 1762.917 6377.804 1713.308 C 6384.331 1684.586 6392.164 1678.058 6422.191 1681.975 L 6457.44 1685.892 L 6457.44 1836.026 C 6457.44 2000.522 6470.495 2038.381 6537.076 2068.408 C 6577.548 2087.992 6695.044 2089.297 6705.489 2071.02 C 6709.405 2064.492 6727.682 2057.965 6745.96 2057.965 C 6774.681 2057.965 6778.597 2063.186 6774.681 2093.213 C 6772.07 2115.407 6759.015 2134.99 6738.126 2145.434 C 6702.878 2163.711 6607.574 2166.322 6554.048 2150.656 Z"
            style=""></path>
        <path
            d="M 7082.783 2146.74 C 7021.423 2133.684 6930.038 2061.881 6898.705 2000.522 C 6842.568 1893.469 6853.012 1798.166 6927.426 1732.891 C 7016.202 1654.559 7137.615 1649.337 7235.528 1719.836 L 7272.083 1744.64 L 7304.721 1712.002 C 7345.192 1671.531 7415.69 1667.614 7448.328 1704.169 C 7480.966 1739.418 7463.994 1760.307 7409.162 1749.862 C 7349.108 1739.418 7332.137 1774.667 7349.108 1880.414 C 7366.08 1988.772 7338.664 2071.02 7269.472 2115.407 C 7225.084 2145.434 7141.531 2158.489 7082.783 2146.74 Z M 7221.168 2055.353 C 7287.749 2009.66 7292.971 1992.688 7274.694 1906.524 C 7249.889 1799.472 7192.446 1744.64 7106.282 1744.64 C 7034.479 1744.64 6966.592 1781.194 6944.398 1829.499 C 6915.677 1892.163 6971.814 2007.049 7056.673 2059.27 C 7110.199 2091.907 7168.947 2090.602 7221.168 2055.353 Z"
            style=""></path>
        <path
            d="M 5215.893 2136.295 C 5193.699 2129.768 5159.755 2108.879 5141.478 2091.907 C 5106.229 2059.27 5106.229 2057.965 5107.535 1879.108 C 5108.84 1779.889 5112.756 1646.727 5117.979 1581.45 C 5125.812 1466.565 5127.117 1463.953 5158.45 1463.953 C 5191.088 1463.953 5191.088 1463.953 5188.477 1574.923 L 5184.56 1687.197 L 5274.641 1681.975 C 5372.555 1675.448 5437.831 1692.419 5492.663 1734.196 C 5572.299 1796.861 5601.02 1957.44 5550.105 2042.298 C 5503.107 2119.323 5324.25 2170.239 5215.893 2136.295 Z M 5458.719 2025.326 C 5490.051 1995.299 5497.884 1977.022 5497.884 1931.329 C 5497.884 1851.692 5469.163 1804.694 5401.276 1772.056 C 5358.194 1749.862 5324.25 1744.64 5266.808 1747.251 L 5191.088 1751.167 L 5187.171 1888.247 C 5183.254 2017.494 5184.56 2026.632 5213.281 2048.825 C 5236.781 2068.408 5260.28 2072.325 5330.778 2068.408 C 5406.498 2064.492 5424.775 2057.965 5458.719 2025.326 Z"
            style=""></path>
        <path
            d="M 7658.517 2134.99 C 7637.628 2125.851 7606.295 2107.574 7589.324 2093.213 C 7560.603 2065.797 7560.603 2063.186 7563.213 1765.528 L 7567.13 1463.953 L 7606.295 1463.953 L 7645.461 1463.953 L 7641.545 1574.923 L 7636.322 1685.892 L 7752.513 1685.892 C 7853.038 1685.892 7872.621 1689.809 7915.704 1718.53 C 7984.896 1765.528 8021.45 1837.332 8022.756 1928.718 C 8024.061 2017.494 7997.951 2061.881 7915.704 2107.574 C 7854.344 2141.518 7717.265 2155.878 7658.517 2134.99 Z M 7881.76 2046.215 C 7966.618 1993.994 7971.841 1876.498 7892.204 1800.778 C 7845.206 1757.695 7777.318 1738.112 7691.154 1747.251 C 7636.322 1752.473 7628.49 1773.362 7627.184 1918.274 C 7625.878 2050.131 7642.85 2071.02 7760.347 2071.02 C 7816.484 2071.02 7853.038 2063.186 7881.76 2046.215 Z"
            style=""></path>
    </g>
</svg>