<?xml version="1.0" standalone="no"?>
<!DOCTYPE svg PUBLIC "-//W3C//DTD SVG 20010904//EN"
 "http://www.w3.org/TR/2001/REC-SVG-20010904/DTD/svg10.dtd">
<svg version="1.0" xmlns="http://www.w3.org/2000/svg"
 width="548.000000pt" height="334.000000pt" viewBox="0 0 548.000000 334.000000"
 preserveAspectRatio="xMidYMid meet">
<metadata>
Created by potrace 1.16, written by Peter Selinger 2001-2019
</metadata>
<g transform="translate(0.000000,334.000000) scale(0.100000,-0.100000)"
fill="#000000" stroke="none">
<path d="M2552 3073 c-48 -23 -75 -67 -76 -123 -2 -89 47 -135 153 -146 l61
-7 0 -73 0 -74 -104 0 c-118 0 -116 1 -116 -83 l0 -51 -49 48 c-57 56 -87 59
-85 8 l2 -32 -142 0 c-97 0 -146 -4 -154 -12 -9 -9 -12 -72 -12 -220 l0 -208
-98 0 c-63 0 -102 -4 -110 -12 -8 -8 -12 -57 -12 -155 0 -130 2 -143 19 -153
29 -15 463 -14 479 2 7 7 12 39 12 75 l0 63 32 0 c24 0 71 -26 185 -101 l153
-102 0 -83 0 -84 -45 0 c-153 0 -229 -156 -124 -256 l30 -29 165 -3 c152 -3
167 -2 198 17 32 20 66 73 66 102 0 7 22 -8 48 -34 26 -26 55 -47 64 -47 23 0
38 23 31 48 -5 21 -4 21 143 24 l149 3 3 198 2 197 98 0 c53 0 103 4 110 8 19
13 20 301 1 313 -8 5 -116 9 -241 9 -255 0 -258 -1 -258 -71 0 -37 -1 -39 -32
-39 -24 0 -71 26 -185 101 l-153 102 0 63 0 64 98 0 c53 0 103 4 110 8 9 7 12
46 10 163 l-3 154 -105 5 -105 5 -3 73 -3 72 36 0 c62 0 122 20 152 52 25 26
28 37 28 93 0 54 -4 67 -25 90 -46 50 -68 55 -222 55 -111 0 -150 -4 -176 -17z
m332 -74 c19 -15 26 -30 26 -54 0 -24 -7 -39 -26 -54 -24 -19 -40 -21 -155
-21 -70 0 -135 3 -144 6 -24 10 -46 60 -39 89 12 47 37 55 180 55 118 0 134
-2 158 -21z m26 -514 l0 -95 -182 2 -183 3 -3 93 -3 92 186 0 185 0 0 -95z
m-423 -152 c11 -8 51 -13 110 -13 l93 0 0 -65 0 -65 -150 -100 c-119 -79 -157
-100 -185 -100 l-35 0 0 49 c0 60 -2 61 -126 61 l-94 0 0 185 0 185 120 0
c116 0 132 -4 110 -26 -6 -6 -8 -18 -5 -27 13 -33 36 -27 88 22 l52 50 3 -72
c2 -53 7 -75 19 -84z m383 -293 c66 -44 120 -82 120 -85 0 -6 -235 -164 -254
-171 -16 -6 -265 155 -266 171 0 14 253 176 267 170 7 -2 66 -40 133 -85z
m-620 -105 l0 -95 -185 0 -185 0 0 95 0 95 185 0 185 0 0 -95z m1321 91 c2 -2
3 -45 1 -95 l-3 -91 -182 2 -182 3 -3 79 c-2 44 -1 85 2 93 4 10 44 13 184 13
98 0 181 -2 183 -4z m-441 -163 c0 -85 3 -87 122 -93 l103 -5 0 -160 0 -160
-117 -3 -117 -3 2 27 c1 15 -5 31 -15 37 -15 10 -26 4 -68 -38 -27 -27 -51
-47 -53 -44 -2 2 -9 19 -17 37 -21 54 -69 83 -145 90 l-65 5 0 81 1 81 152
102 c112 75 161 102 185 102 l32 1 0 -57z m-245 -408 c31 -30 32 -71 3 -102
-20 -22 -28 -23 -163 -23 -130 0 -143 2 -160 20 -28 31 -24 79 9 107 25 22 35
23 157 23 125 0 131 -1 154 -25z"/>
<path d="M1151 897 c-8 -11 -11 -79 -9 -243 l3 -229 25 0 25 0 3 122 3 122 30
25 c53 45 170 32 195 -22 5 -9 11 -71 14 -137 5 -120 5 -120 30 -120 l25 0 3
126 c2 116 1 128 -20 159 -49 73 -164 101 -240 60 l-37 -20 -3 83 c-2 65 -6
82 -19 85 -9 1 -21 -4 -28 -11z"/>
<path d="M4881 891 c-12 -21 -16 -427 -5 -455 3 -9 17 -16 30 -16 23 0 23 1
26 127 l3 127 34 23 c25 17 48 23 88 23 47 0 59 -4 84 -29 32 -33 33 -35 33
-176 1 -100 1 -100 26 -100 l25 0 3 125 c2 143 -3 160 -65 204 -57 40 -133 47
-191 17 l-41 -21 -3 82 c-2 68 -6 83 -20 86 -9 2 -21 -6 -27 -17z"/>
<path d="M384 880 c-72 -15 -123 -75 -149 -175 -31 -119 -10 -220 54 -258 48
-28 130 -39 208 -27 96 15 123 27 123 57 0 33 -18 37 -65 13 -29 -15 -59 -20
-115 -20 -80 0 -115 14 -148 61 -37 52 -7 201 53 264 26 28 40 35 71 35 47 0
104 -32 104 -59 0 -33 11 -51 31 -51 15 0 19 7 19 39 0 81 -92 140 -186 121z"/>
<path d="M793 855 c-62 -28 -93 -72 -93 -130 0 -71 25 -91 155 -120 38 -9 80
-23 93 -31 52 -34 -1 -94 -91 -102 -51 -4 -55 -2 -81 29 -27 32 -29 32 -42 14
-18 -25 -18 -38 4 -64 24 -30 90 -44 149 -31 87 20 143 68 143 123 0 63 -37
90 -157 113 -125 24 -149 54 -92 119 60 68 157 68 169 0 7 -39 34 -40 38 -1 6
46 -6 75 -38 91 -42 22 -97 18 -157 -10z"/>
<path d="M3133 855 c-90 -45 -149 -152 -137 -248 8 -58 32 -113 62 -140 49
-44 147 -59 220 -33 25 9 44 11 47 5 4 -5 15 -9 26 -9 21 0 21 3 19 98 -1 35
4 69 10 77 6 8 9 23 5 34 -5 17 -15 19 -81 19 -84 -1 -117 -15 -95 -42 9 -11
30 -16 62 -16 l49 0 0 -39 c0 -55 -25 -82 -83 -88 -180 -21 -252 177 -112 306
40 37 50 41 94 41 42 0 56 -5 84 -30 42 -37 57 -38 57 -5 0 33 -38 68 -88 83
-57 17 -82 15 -139 -13z"/>
<path d="M1769 776 c-98 -25 -163 -107 -164 -206 0 -69 28 -109 97 -139 63
-28 96 -26 163 9 l57 30 20 -25 c14 -19 29 -25 57 -25 41 0 61 14 61 43 0 16
-5 18 -40 12 -47 -8 -44 -16 -44 117 -1 93 -2 98 -31 128 -54 57 -106 73 -176
56z m99 -60 c15 -8 36 -23 46 -35 18 -20 18 -25 6 -79 -16 -66 -28 -88 -67
-113 -56 -38 -158 -13 -184 45 -24 53 17 144 81 177 41 23 81 24 118 5z"/>
<path d="M2257 775 c-21 -7 -41 -16 -44 -19 -3 -3 -12 2 -19 12 -10 13 -17 15
-31 6 -13 -8 -20 -29 -24 -75 -10 -96 -10 -252 0 -267 4 -8 19 -12 32 -10 24
3 24 4 24 118 0 126 10 155 61 178 31 15 121 16 129 2 3 -5 17 -10 31 -10 22
0 25 4 22 27 -2 17 -12 32 -28 40 -33 16 -105 16 -153 -2z"/>
<path d="M3629 781 c-14 -5 -35 -13 -46 -19 -17 -9 -22 -9 -27 3 -8 21 -33 19
-46 -4 -12 -24 -26 -277 -16 -315 5 -22 11 -27 34 -24 l27 3 0 115 c0 126 10
155 61 178 31 15 121 16 129 2 3 -5 17 -10 31 -10 22 0 25 4 22 27 -2 17 -12
32 -28 40 -27 14 -100 16 -141 4z"/>
<path d="M4034 778 c-47 -10 -117 -65 -141 -112 -43 -82 -35 -155 22 -205 68
-60 161 -64 236 -10 l28 19 25 -25 c31 -31 85 -34 110 -6 25 27 12 43 -30 35
-46 -8 -59 19 -46 100 13 83 -8 146 -61 180 -34 23 -98 33 -143 24z m106 -70
c51 -35 55 -48 41 -114 -19 -82 -63 -124 -129 -124 -55 0 -107 28 -124 65 -22
48 21 136 86 176 41 25 86 24 126 -3z"/>
<path d="M2604 770 c-17 -5 -43 -21 -57 -34 -27 -25 -27 -26 -26 -163 1 -76 4
-178 8 -228 6 -88 7 -90 31 -90 25 0 25 0 23 85 l-3 86 69 -4 c75 -5 125 8
167 40 61 48 83 171 44 236 -36 59 -173 98 -256 72z m186 -85 c24 -23 30 -37
30 -72 0 -61 -22 -97 -74 -122 -33 -17 -59 -21 -103 -19 l-58 3 -3 105 c-3 99
-2 106 20 123 18 15 36 18 90 15 58 -3 72 -8 98 -33z"/>
<path d="M4475 769 c-16 -7 -40 -21 -53 -32 -22 -21 -22 -23 -20 -251 l3 -231
30 0 30 0 -3 85 -4 85 89 0 c77 0 92 3 125 25 53 36 81 91 82 161 1 68 -19
102 -82 137 -47 26 -152 37 -197 21z m171 -68 c65 -40 69 -130 8 -188 -36 -33
-88 -48 -154 -41 -42 4 -48 20 -49 131 -1 101 12 117 102 117 43 0 71 -6 93
-19z"/>
</g>
</svg>
